# xmcd CD database file
#
# Track frame offsets:
#	150
#	24317
#	39806
#	52608
#	72326
#	90542
#	102570
#	127347
#	145151
#	164118
#
# Disc length: 2450 seconds
#
# Revision: 0
# Processed by: cddbd v1.5.1PL0 Copyright (c) Steve Scherf et al.
# Submitted via: CDex 1.51
#
DISCID=8509900a
DTITLE=Hot Club of New Orleans - Hot Club of New Orleans
DYEAR=2002
DGENRE=Blues
TTITLE0=Bebop
TTITLE1=I'll See You In My Dreams
TTITLE2=Teach Me Tonight
TTITLE3=Palestina
TTITLE4=Come Rain or Come Shine
TTITLE5=Buns and Mustard
TTITLE6=Star Eyes
TTITLE7=Moon Song
TTITLE8=Time On My Hands
TTITLE9=Little Brown Bird
EXTD=YEAR: 2002
EXTT0=
EXTT1=
EXTT2=
EXTT3=
EXTT4=
EXTT5=
EXTT6=
EXTT7=
EXTT8=
EXTT9=
PLAYORDER=
